<?xml version="1.0" encoding="utf-8"?>
<!-- Generator: Adobe Illustrator 25.4.1, SVG Export Plug-In . SVG Version: 6.00 Build 0)  -->
<svg version="1.1" id="Calque_1" xmlns="http://www.w3.org/2000/svg" xmlns:xlink="http://www.w3.org/1999/xlink" x="0px" y="0px"
	 viewBox="0 0 288 288" style="enable-background:new 0 0 288 288;" xml:space="preserve">
<style type="text/css">
	.st0{fill:none;stroke:#FFFFFF;stroke-width:5.6693;stroke-linecap:round;stroke-linejoin:round;stroke-miterlimit:10;}
	.st1{fill:none;stroke:#FFFFFF;stroke-width:4.252;stroke-linecap:round;stroke-linejoin:round;stroke-miterlimit:10;}
</style>
<path class="st0" d="M113.9,176.9c0,0-3.6,10.2-8.2,5.3s-15.2-26-15.5-31.3s12.5-28.3,12.5-28.3"/>
<path class="st0" d="M125.1,105.4c0,0,14.8-8.4,19.4-9.2c4.7-0.8,9.9-2,19.1,3.6c9.2,5.6,25.7,17.1,25.7,17.1s10.5,3.3,18.8,3
	c3.2-0.1,8.6-0.7,8.6-0.7"/>
<path class="st0" d="M215.4,160.1c0,0-19.5,0.1-24.1,3.1s-6,6-17.2,6.4s-58.5,0.1-58.5,0.1s-19.4-7.4-1.6-22.3
	c6.9-5.8,13.3-5,19.4-6.5c12.2-3.1,19.7-2.5,19.7-2.5"/>
<path class="st0" d="M70.8,205.1c0,0,18.6-13.1,67.2-13.1s79.3,13.7,79.3,13.7"/>
<path class="st0" d="M111.3,63.9c-1.2-4.8-6.2-7.7-11-6.5s-7.7,6.2-6.5,11c0.7,2.6,2.4,4.6,4.6,5.8l16.9,70.5l11.6-3L110,71.2
	C111.4,69.2,112,66.5,111.3,63.9z"/>
<line class="st0" x1="132.6" y1="191.7" x2="127.3" y2="170"/>
<circle class="st1" cx="144" cy="144" r="124"/>
</svg>
